<?xml version="1.0" encoding="iso-8859-1"?>
<!-- Generator: Adobe Illustrator 19.0.0, SVG Export Plug-In . SVG Version: 6.00 Build 0)  -->
<svg xmlns="http://www.w3.org/2000/svg" xmlns:xlink="http://www.w3.org/1999/xlink" version="1.1" id="Capa_1" x="0px" y="0px" viewBox="0 0 512.002 512.002" style="enable-background:new 0 0 512.002 512.002;" xml:space="preserve" width="512px" height="512px">
<g>
	<g>
		<path d="M456.534,0h-332.8c-42.351,0-76.8,34.449-76.8,76.8v341.333c0,4.719,3.823,8.533,8.533,8.533    c4.71,0,8.533-3.814,8.533-8.533c0-32.93,26.795-59.733,59.733-59.733h332.8c4.71,0,8.533-3.814,8.533-8.533V8.533    C465.068,3.814,461.245,0,456.534,0z M448.001,341.333H123.734c-24.098,0-45.645,11.162-59.733,28.578V76.8    c0-32.93,26.795-59.733,59.733-59.733h324.267V341.333z" fill="#15c39a"/>
	</g>
</g>
<g>
	<g>
		<path d="M183.468,409.6h-59.733c-4.71,0-8.533,3.814-8.533,8.533s3.823,8.533,8.533,8.533h59.733c4.71,0,8.533-3.814,8.533-8.533    S188.178,409.6,183.468,409.6z" fill="#15c39a"/>
	</g>
</g>
<g>
	<g>
		<path d="M285.867,409.6h-51.2c-4.71,0-8.533,3.814-8.533,8.533s3.823,8.533,8.533,8.533h51.2c4.71,0,8.533-3.814,8.533-8.533    S290.578,409.6,285.867,409.6z" fill="#15c39a"/>
	</g>
</g>
<g>
	<g>
		<path d="M456.534,409.6h-42.667c-4.71,0-8.533,3.814-8.533,8.533s3.823,8.533,8.533,8.533h42.667c4.71,0,8.533-3.814,8.533-8.533    S461.245,409.6,456.534,409.6z" fill="#15c39a"/>
	</g>
</g>
<g>
	<g>
		<path d="M120.841,2.731c-1.835-1.621-4.275-2.355-6.707-2.065c-38.315,4.847-67.2,37.572-67.2,76.134v341.333    c0,4.719,3.823,8.533,8.533,8.533c4.71,0,8.533-3.814,8.533-8.533c0-29.986,22.468-55.433,52.267-59.204    c4.267-0.538,7.467-4.164,7.467-8.465V9.131C123.734,6.682,122.685,4.352,120.841,2.731z M106.667,343.313    c-17.186,3.925-32.06,13.551-42.667,26.667V76.8c0-26.667,17.775-49.741,42.667-57.173V343.313z" fill="#15c39a"/>
	</g>
</g>
<g>
	<g>
		<path d="M120.841,61.269c-1.835-1.63-4.275-2.381-6.707-2.074c-38.315,4.847-67.2,37.572-67.2,76.143v52.395    c0,4.719,3.823,8.533,8.533,8.533c4.71,0,8.533-3.814,8.533-8.533c0-29.986,22.468-55.433,52.267-59.196    c4.267-0.538,7.467-4.164,7.467-8.465V67.669C123.734,65.22,122.685,62.882,120.841,61.269z M106.667,112.913    c-17.186,3.925-32.06,13.551-42.667,26.667v-4.241c0-26.667,17.775-49.749,42.667-57.182V112.913z" fill="#15c39a"/>
	</g>
</g>
<g>
	<g>
		<path d="M120.85,198.4c-1.843-1.621-4.275-2.347-6.716-2.065c-38.315,4.847-67.2,37.572-67.2,76.134v52.395    c0,4.719,3.823,8.533,8.533,8.533c4.71,0,8.533-3.814,8.533-8.533c0-29.978,22.468-55.441,52.267-59.204    c4.267-0.538,7.467-4.164,7.467-8.465V204.8C123.734,202.351,122.685,200.013,120.85,198.4z M106.667,250.035    c-17.186,3.925-32.06,13.551-42.667,26.675v-4.25c0-26.667,17.775-49.741,42.667-57.173V250.035z" fill="#15c39a"/>
	</g>
</g>
<g>
	<g>
		<path d="M234.668,409.6h-51.2c-4.71,0-8.533,3.814-8.533,8.533v85.333c0,3.447,2.082,6.571,5.265,7.885    c3.183,1.323,6.861,0.589,9.301-1.852l19.567-19.567l19.567,19.567c1.63,1.63,3.814,2.5,6.033,2.5c1.101,0,2.21-0.205,3.268-0.648    c3.183-1.314,5.265-4.437,5.265-7.885v-85.333C243.201,413.414,239.378,409.6,234.668,409.6z M226.134,482.867l-11.034-11.034    c-1.664-1.664-3.849-2.5-6.033-2.5c-2.185,0-4.369,0.836-6.033,2.5l-11.034,11.034v-56.201h34.133V482.867z" fill="#15c39a"/>
	</g>
</g>
<g>
	<g>
		<path d="M456.534,375.467h-332.8c-23.526,0-42.667,19.14-42.667,42.667c0,23.526,19.14,42.667,42.667,42.667h59.733    c4.71,0,8.533-3.814,8.533-8.533v-25.6h34.133v25.6c0,4.719,3.823,8.533,8.533,8.533h221.867c4.71,0,8.533-3.814,8.533-8.533V384    C465.068,379.281,461.245,375.467,456.534,375.467z M448.001,443.733h-204.8v-25.6c0-4.719-3.823-8.533-8.533-8.533h-51.2    c-4.71,0-8.533,3.814-8.533,8.533v25.6h-51.2c-14.114,0-25.6-11.486-25.6-25.6s11.486-25.6,25.6-25.6h324.267V443.733z" fill="#15c39a"/>
	</g>
</g>
<g>
	<g>
		<path d="M456.534,341.333h-332.8c-42.351,0-76.8,34.449-76.8,76.8s34.449,76.8,76.8,76.8h59.733c4.71,0,8.533-3.814,8.533-8.533    v-59.733h34.133V486.4c0,4.719,3.823,8.533,8.533,8.533h221.867c4.71,0,8.533-3.814,8.533-8.533V349.867    C465.068,345.148,461.245,341.333,456.534,341.333z M448.001,477.867h-204.8v-59.733c0-4.719-3.823-8.533-8.533-8.533h-51.2    c-4.71,0-8.533,3.814-8.533,8.533v59.733h-51.2c-32.939,0-59.733-26.803-59.733-59.733c0-32.93,26.795-59.733,59.733-59.733    h324.267V477.867z" fill="#15c39a"/>
	</g>
</g>
<g>
	<g>
		<path d="M337.016,70.724c-16.282-14.558-38.153-21.453-60.058-19.021c-34.569,3.908-62.857,31.77-67.251,66.244    c-3.499,27.443,7.398,53.888,29.15,70.75c8.183,6.332,12.877,15.249,12.877,24.457v8.713c0,4.719,3.823,8.533,8.533,8.533h51.2    c4.71,0,8.533-3.814,8.533-8.533v-7.723c0-9.958,4.301-19.089,11.503-24.422C351.02,175.3,362.668,152.226,362.668,128    C362.668,106.155,353.323,85.274,337.016,70.724z M321.358,176.009c-11.332,8.371-18.176,22.281-18.415,37.325h-34.142v-0.179    c0-14.532-7.108-28.365-19.499-37.956c-16.922-13.116-25.395-33.707-22.665-55.091c3.422-26.769,25.387-48.41,52.241-51.439    c17.306-2.005,33.92,3.294,46.771,14.771C338.33,94.763,345.601,111.01,345.601,128    C345.601,147.115,336.76,164.608,321.358,176.009z" fill="#15c39a"/>
	</g>
</g>
<g>
	<g>
		<path d="M328.534,213.333h-85.333c-4.71,0-8.533,3.814-8.533,8.533V256c0,4.719,3.823,8.533,8.533,8.533h85.333    c4.71,0,8.533-3.814,8.533-8.533v-34.133C337.068,217.148,333.245,213.333,328.534,213.333z M320.001,247.467h-68.267V230.4    h68.267V247.467z" fill="#15c39a"/>
	</g>
</g>
<g>
	<g>
		<path d="M311.468,247.467h-51.2c-4.71,0-8.533,3.814-8.533,8.533v25.6c0,18.825,15.309,34.133,34.133,34.133    c18.825,0,34.133-15.309,34.133-34.133V256C320.001,251.281,316.178,247.467,311.468,247.467z M302.934,281.6    c0,9.412-7.654,17.067-17.067,17.067c-9.412,0-17.067-7.654-17.067-17.067v-17.067h34.133V281.6z" fill="#15c39a"/>
	</g>
</g>
<g>
	<g>
		<path d="M285.867,145.067c-4.71,0-8.533,3.814-8.533,8.533v68.267c0,4.719,3.823,8.533,8.533,8.533    c4.71,0,8.533-3.814,8.533-8.533V153.6C294.401,148.881,290.578,145.067,285.867,145.067z" fill="#15c39a"/>
	</g>
</g>
<g>
	<g>
		<path d="M260.268,119.467c-4.71,0-8.533,3.814-8.533,8.533s3.823,8.533,8.533,8.533c9.412,0,17.067,7.654,17.067,17.067    c0,4.719,3.823,8.533,8.533,8.533c4.71,0,8.533-3.814,8.533-8.533C294.401,134.775,279.092,119.467,260.268,119.467z" fill="#15c39a"/>
	</g>
</g>
<g>
	<g>
		<path d="M311.468,119.467c-18.825,0-34.133,15.309-34.133,34.133c0,4.719,3.823,8.533,8.533,8.533c4.71,0,8.533-3.814,8.533-8.533    c0-9.412,7.654-17.067,17.067-17.067c4.71,0,8.533-3.814,8.533-8.533S316.178,119.467,311.468,119.467z" fill="#15c39a"/>
	</g>
</g>
<g>
	<g>
		<path d="M302.934,162.133h-34.133c-4.71,0-8.533,3.814-8.533,8.533s3.823,8.533,8.533,8.533h34.133    c4.71,0,8.533-3.814,8.533-8.533S307.645,162.133,302.934,162.133z" fill="#15c39a"/>
	</g>
</g>
<g>
</g>
<g>
</g>
<g>
</g>
<g>
</g>
<g>
</g>
<g>
</g>
<g>
</g>
<g>
</g>
<g>
</g>
<g>
</g>
<g>
</g>
<g>
</g>
<g>
</g>
<g>
</g>
<g>
</g>
</svg>
